<svg xmlns="http://www.w3.org/2000/svg" viewBox="0 0 200 200" fill="none">
  <defs>
    <linearGradient id="grad1" x1="0%" y1="0%" x2="100%" y2="100%">
      <stop offset="0%" style="stop-color:#6366f1;stop-opacity:1" />
      <stop offset="100%" style="stop-color:#a855f7;stop-opacity:1" />
    </linearGradient>
    <linearGradient id="grad2" x1="0%" y1="0%" x2="100%" y2="100%">
      <stop offset="0%" style="stop-color:#818cf8;stop-opacity:1" />
      <stop offset="100%" style="stop-color:#c084fc;stop-opacity:1" />
    </linearGradient>
  </defs>
  <!-- Background circle -->
  <circle cx="100" cy="100" r="90" fill="url(#grad1)" opacity="0.15"/>
  <circle cx="100" cy="100" r="75" fill="url(#grad1)" opacity="0.1"/>
  <!-- Shield shape -->
  <path d="M100 25 L155 55 L155 110 C155 140 130 165 100 180 C70 165 45 140 45 110 L45 55 Z" fill="url(#grad1)" opacity="0.9"/>
  <path d="M100 35 L145 60 L145 108 C145 134 124 155 100 168 C76 155 55 134 55 108 L55 60 Z" fill="#0f172a"/>
  <!-- Captain hat / graduation cap -->
  <path d="M70 90 L100 70 L130 90 L100 100 Z" fill="url(#grad2)"/>
  <rect x="95" y="65" width="10" height="8" rx="2" fill="url(#grad2)"/>
  <line x1="130" y1="90" x2="135" y2="110" stroke="#a855f7" stroke-width="2"/>
  <circle cx="135" cy="113" r="4" fill="#a855f7"/>
  <!-- Star -->
  <path d="M100 110 L103 120 L113 120 L105 126 L108 136 L100 130 L92 136 L95 126 L87 120 L97 120 Z" fill="url(#grad2)"/>
  <!-- Arabic letter ك -->
  <text x="100" y="160" text-anchor="middle" font-family="Arial" font-size="20" font-weight="bold" fill="#818cf8">كابتن تخصص</text>
</svg>
